<svg xmlns="http://www.w3.org/2000/svg" viewBox="0 0 622.73 93.79"><defs><style>.cls-1{fill:#10163d;}.cls-2{fill:#074e9e;}.cls-3{fill:#cfc8b8;}</style></defs><title>Recurso 3</title><g id="Capa_2" data-name="Capa 2"><g id="Capa_1-2" data-name="Capa 1"><path class="cls-1" d="M123.07,50.69V5.33H140a33,33,0,0,1,9.94,1.51,26.42,26.42,0,0,1,8.53,4.43,22.16,22.16,0,0,1,5.94,7.13A20.16,20.16,0,0,1,166.63,28a20.19,20.19,0,0,1-2.23,9.61,22.27,22.27,0,0,1-5.94,7.13,26.61,26.61,0,0,1-8.53,4.43A33.32,33.32,0,0,1,140,50.69ZM129.55,48h10.08a22.24,22.24,0,0,0,7.6-1.33,19.92,19.92,0,0,0,6.55-3.85,19.13,19.13,0,0,0,4.61-6.27A19.59,19.59,0,0,0,160.15,28a19.67,19.67,0,0,0-1.76-8.5,19.19,19.19,0,0,0-4.61-6.26,19.75,19.75,0,0,0-6.55-3.85,22.25,22.25,0,0,0-7.6-1.34H129.55Z"/><path class="cls-1" d="M172.75,50.69V16.27h5.91v7.27a18,18,0,0,1,2.37-3.2,15.15,15.15,0,0,1,3-2.52,16.19,16.19,0,0,1,3.49-1.66,11.62,11.62,0,0,1,3.63-.61v4.61a3.51,3.51,0,0,0-.72-.07h-.72a27.52,27.52,0,0,0-4.71.36,8,8,0,0,0-3.39,1.33,6,6,0,0,0-2,2.7,12.18,12.18,0,0,0-.69,4.46V50.69Z"/><path class="cls-1" d="M194.21,46.58a4.21,4.21,0,0,1,1.29-3.13,4.38,4.38,0,0,1,3.17-1.26,4,4,0,0,1,3.06,1.26,4.41,4.41,0,0,1,1.19,3.13,4.52,4.52,0,0,1-1.19,3.17,3.94,3.94,0,0,1-3.06,1.3,4.26,4.26,0,0,1-3.2-1.3,4.37,4.37,0,0,1-1.26-3.17"/><polygon class="cls-1" points="228.77 50.69 228.77 5.33 260.81 5.33 260.81 8.06 235.25 8.06 235.25 25.42 254.54 25.42 254.54 28.08 235.25 28.08 235.25 50.69 228.77 50.69"/><path class="cls-1" d="M278.59,15.62a21,21,0,0,1,7.81,1.16,10.15,10.15,0,0,1,4.07,2.73A6.38,6.38,0,0,1,292,22.75a20.44,20.44,0,0,1,.22,2.59V50.69h-6.41l.07-6.12a9.29,9.29,0,0,1-2,3A12.76,12.76,0,0,1,281,49.75,11.93,11.93,0,0,1,277.69,51a15.24,15.24,0,0,1-3.42.4A21.08,21.08,0,0,1,270.1,51a10.52,10.52,0,0,1-3.75-1.55,8.55,8.55,0,0,1-2.7-3,9.92,9.92,0,0,1-1-4.78,9.18,9.18,0,0,1,1.51-5.4A11.33,11.33,0,0,1,268,32.76a17.33,17.33,0,0,1,5.29-1.84,32.38,32.38,0,0,1,5.84-.54,35.76,35.76,0,0,1,7,.65V24.77a11.34,11.34,0,0,0-.29-2.49A5.05,5.05,0,0,0,284.6,20a6.77,6.77,0,0,0-2.62-1.7,13,13,0,0,0-4.61-.68,13.54,13.54,0,0,0-5.83,1.4,32.84,32.84,0,0,0-5.48,3.28l-1.29-2.09A21.4,21.4,0,0,1,270.56,17a22,22,0,0,1,8-1.37M276.22,49.1a8.4,8.4,0,0,0,5-1.51A10.37,10.37,0,0,0,284.24,44a14.89,14.89,0,0,0,1.52-4.61,30,30,0,0,0,.39-4.64l-.07-2.24-2.74-.32a26.62,26.62,0,0,0-3.16-.18,18.05,18.05,0,0,0-4.14.47,9.48,9.48,0,0,0-3.5,1.58A8.14,8.14,0,0,0,270.13,37a9.93,9.93,0,0,0-.9,4.46c0,2.59.6,4.53,1.8,5.8a6.59,6.59,0,0,0,5.19,1.83"/><path class="cls-1" d="M301.2,50.62V0h6.19V24.41a13.57,13.57,0,0,1,2.31-3.57,17.38,17.38,0,0,1,3.16-2.8,14.67,14.67,0,0,1,3.64-1.84,11.34,11.34,0,0,1,3.64-.65,16.86,16.86,0,0,1,6.94,1.37,15.24,15.24,0,0,1,5.22,3.78,16.77,16.77,0,0,1,3.32,5.69,21.43,21.43,0,0,1,1.15,7.09,19.58,19.58,0,0,1-1.26,7.09,16.86,16.86,0,0,1-3.57,5.69A16.44,16.44,0,0,1,326.47,50a17.63,17.63,0,0,1-7.05,1.37,10.24,10.24,0,0,1-3.68-.72,15.61,15.61,0,0,1-3.52-1.91,17.47,17.47,0,0,1-3-2.7,12.51,12.51,0,0,1-2.05-3.1v7.64Zm17.71-1.8a9.42,9.42,0,0,0,4.75-1.23,11.49,11.49,0,0,0,3.68-3.31,16.37,16.37,0,0,0,2.34-4.86,20.75,20.75,0,0,0,.82-5.94,21.18,21.18,0,0,0-.82-6,16.31,16.31,0,0,0-2.34-4.89,11.17,11.17,0,0,0-3.68-3.28,9.71,9.71,0,0,0-4.75-1.19,9.87,9.87,0,0,0-4.82,1.19,11,11,0,0,0-3.67,3.28,15.36,15.36,0,0,0-2.31,4.89,21.93,21.93,0,0,0-.79,6,20.75,20.75,0,0,0,.83,5.94,15.9,15.9,0,0,0,2.34,4.86,11.65,11.65,0,0,0,3.63,3.31,9.41,9.41,0,0,0,4.79,1.23"/><path class="cls-1" d="M343.39,6.77h6.19V12.1h-6.19Zm0,9.57h6.19V50.69h-6.19Z"/><path class="cls-1" d="M372.41,15.62a21,21,0,0,1,7.81,1.16,10.22,10.22,0,0,1,4.07,2.73,6.47,6.47,0,0,1,1.51,3.24,22.52,22.52,0,0,1,.22,2.59V50.69h-6.41l.07-6.12a9.16,9.16,0,0,1-2,3,12.48,12.48,0,0,1-2.84,2.16A12.05,12.05,0,0,1,371.51,51a15.91,15.91,0,0,1-3.42.4,21.11,21.11,0,0,1-4.18-.43,10.47,10.47,0,0,1-3.74-1.55,8.36,8.36,0,0,1-2.7-3,9.8,9.8,0,0,1-1.05-4.78,9.18,9.18,0,0,1,1.52-5.4,11.24,11.24,0,0,1,3.85-3.46,17.33,17.33,0,0,1,5.29-1.84,32.36,32.36,0,0,1,5.83-.54,35.79,35.79,0,0,1,7,.65V24.77a11.27,11.27,0,0,0-.29-2.49A5,5,0,0,0,378.42,20a6.81,6.81,0,0,0-2.63-1.7,12.93,12.93,0,0,0-4.61-.68,13.58,13.58,0,0,0-5.83,1.4,32.75,32.75,0,0,0-5.47,3.28l-1.3-2.09a21.62,21.62,0,0,1,5.8-3.24,21.94,21.94,0,0,1,8-1.37M370,49.1a8.43,8.43,0,0,0,5-1.51A10.37,10.37,0,0,0,378.06,44a14.87,14.87,0,0,0,1.51-4.61,28.91,28.91,0,0,0,.4-4.64l-.07-2.24-2.74-.32A26.79,26.79,0,0,0,374,32a18.05,18.05,0,0,0-4.14.47,9.51,9.51,0,0,0-3.49,1.58A8,8,0,0,0,364,37a9.93,9.93,0,0,0-.9,4.46c0,2.59.6,4.53,1.8,5.8A6.58,6.58,0,0,0,370,49.1m-6-37.72L372.77,3h7.92l-10.87,8.43Z"/><path class="cls-1" d="M395,50.69V16.34h6.19v7.35a13.65,13.65,0,0,1,5.33-6.12,13.15,13.15,0,0,1,6.76-2,16.07,16.07,0,0,1,6.2,1.12A12.36,12.36,0,0,1,424,19.87a13.19,13.19,0,0,1,2.7,4.83,20.16,20.16,0,0,1,.9,6.19v19.8h-6.19V29.52a17.4,17.4,0,0,0-.54-4.43,10.13,10.13,0,0,0-1.69-3.56,7.7,7.7,0,0,0-2.92-2.34,9.71,9.71,0,0,0-4.14-.83,11.65,11.65,0,0,0-4.72.9,9.58,9.58,0,0,0-3.42,2.48,10.55,10.55,0,0,0-2.05,3.82,16.28,16.28,0,0,0-.68,4.82V50.69Z"/><path class="cls-1" d="M480.05,38.45H458.3l-5.61,12.17h-2.88l18.14-40-2.38-5.32h6.56l20.66,45.36h-6.91Zm-.8-2.38L469.46,14l-10.08,22.1Z"/><path class="cls-1" d="M498.26,50.69V16.27h5.91v7.27a18,18,0,0,1,2.37-3.2,15.15,15.15,0,0,1,3-2.52,16.19,16.19,0,0,1,3.49-1.66,11.62,11.62,0,0,1,3.63-.61v4.61a3.51,3.51,0,0,0-.72-.07h-.72a27.52,27.52,0,0,0-4.71.36,8,8,0,0,0-3.39,1.33,5.91,5.91,0,0,0-2,2.7,12.18,12.18,0,0,0-.69,4.46V50.69Z"/><path class="cls-1" d="M535.2,15.62A21,21,0,0,1,543,16.78a10.22,10.22,0,0,1,4.07,2.73,6.47,6.47,0,0,1,1.51,3.24,22.52,22.52,0,0,1,.22,2.59V50.69H542.4l.07-6.12a9.16,9.16,0,0,1-2,3,12.48,12.48,0,0,1-2.84,2.16A12.05,12.05,0,0,1,534.3,51a15.31,15.31,0,0,1-3.42.4A21.11,21.11,0,0,1,526.7,51,10.47,10.47,0,0,1,523,49.43a8.36,8.36,0,0,1-2.7-3,9.8,9.8,0,0,1-1-4.78,9.18,9.18,0,0,1,1.52-5.4,11.24,11.24,0,0,1,3.85-3.46,17.33,17.33,0,0,1,5.29-1.84,32.36,32.36,0,0,1,5.83-.54,35.79,35.79,0,0,1,7,.65V24.77a11.34,11.34,0,0,0-.29-2.49A5.15,5.15,0,0,0,541.21,20a6.81,6.81,0,0,0-2.63-1.7,12.93,12.93,0,0,0-4.61-.68,13.58,13.58,0,0,0-5.83,1.4,32.75,32.75,0,0,0-5.47,3.28l-1.3-2.09a21.62,21.62,0,0,1,5.8-3.24,21.94,21.94,0,0,1,8-1.37M532.82,49.1a8.43,8.43,0,0,0,5-1.51A10.47,10.47,0,0,0,540.85,44a14.87,14.87,0,0,0,1.51-4.61,30.11,30.11,0,0,0,.4-4.64l-.07-2.24L540,32.22a26.92,26.92,0,0,0-3.17-.18,18.05,18.05,0,0,0-4.14.47,9.51,9.51,0,0,0-3.49,1.58A8,8,0,0,0,526.74,37a9.93,9.93,0,0,0-.9,4.46c0,2.59.6,4.53,1.8,5.8a6.56,6.56,0,0,0,5.18,1.83"/><polygon class="cls-1" points="564.29 66.96 570.33 53.93 553.27 16.34 559.46 16.34 573.36 47.95 587.25 16.34 589.77 16.34 567.45 66.96 564.29 66.96"/><path class="cls-1" d="M607.92,15.62a21,21,0,0,1,7.81,1.16,10.22,10.22,0,0,1,4.07,2.73,6.55,6.55,0,0,1,1.51,3.24,22.07,22.07,0,0,1,.21,2.59V50.69h-6.4l.07-6.12a9.16,9.16,0,0,1-2,3,12.48,12.48,0,0,1-2.84,2.16A12.05,12.05,0,0,1,607,51a15.31,15.31,0,0,1-3.42.4,21.11,21.11,0,0,1-4.18-.43,10.47,10.47,0,0,1-3.74-1.55,8.36,8.36,0,0,1-2.7-3,9.8,9.8,0,0,1-1.05-4.78,9.18,9.18,0,0,1,1.52-5.4,11.24,11.24,0,0,1,3.85-3.46,17.33,17.33,0,0,1,5.29-1.84,32.36,32.36,0,0,1,5.83-.54,35.61,35.61,0,0,1,7,.65V24.77a11.32,11.32,0,0,0-.28-2.49A5.15,5.15,0,0,0,613.93,20a6.81,6.81,0,0,0-2.63-1.7,12.93,12.93,0,0,0-4.61-.68,13.58,13.58,0,0,0-5.83,1.4,32.75,32.75,0,0,0-5.47,3.28l-1.3-2.09a21.62,21.62,0,0,1,5.8-3.24,21.94,21.94,0,0,1,8-1.37M605.54,49.1a8.43,8.43,0,0,0,5-1.51A10.47,10.47,0,0,0,613.57,44a14.87,14.87,0,0,0,1.51-4.61,30.11,30.11,0,0,0,.4-4.64l-.08-2.24-2.73-.32A26.92,26.92,0,0,0,609.5,32a18.05,18.05,0,0,0-4.14.47,9.51,9.51,0,0,0-3.49,1.58A8,8,0,0,0,599.46,37a9.93,9.93,0,0,0-.9,4.46c0,2.59.6,4.53,1.8,5.8a6.56,6.56,0,0,0,5.18,1.83"/><path class="cls-2" d="M131.41,76.32a7.26,7.26,0,0,1,2,.26,5,5,0,0,1,1.66.8,3.88,3.88,0,0,1,1.12,1.4,4.44,4.44,0,0,1,.42,2,4.8,4.8,0,0,1-.84,2.83,3.85,3.85,0,0,1-2.49,1.54v0a3.73,3.73,0,0,1,1.39.44,2.76,2.76,0,0,1,.9.83,3.29,3.29,0,0,1,.5,1.16,8.77,8.77,0,0,1,.21,1.43c0,.29,0,.64.05,1.06s0,.83.09,1.26a8.79,8.79,0,0,0,.23,1.2,2.21,2.21,0,0,0,.42.87h-1.8a2,2,0,0,1-.23-.59q-.07-.35-.12-.72l-.06-.73c0-.24,0-.45-.05-.62,0-.61-.08-1.21-.15-1.81a5,5,0,0,0-.46-1.61,2.85,2.85,0,0,0-1-1.14,3,3,0,0,0-1.81-.39h-6.19v7.61h-1.63V76.32Zm-.12,8.13a4.17,4.17,0,0,0,1.41-.23,3.5,3.5,0,0,0,1.18-.66,3.11,3.11,0,0,0,1.1-2.44,3.37,3.37,0,0,0-.91-2.5,3.78,3.78,0,0,0-2.78-.91h-6.1v6.74Z"/><path class="cls-2" d="M192,76.32l6.72,17.13H197l-2.08-5.32h-7.8L185,93.45h-1.73l6.89-17.13Zm2.32,10.41L191,78l-3.43,8.78Z"/><path class="cls-2" d="M251.81,76.32a8,8,0,0,1,5.89,2.19c1.33,1.4,2,3.53,2,6.37s-.66,5-2,6.38a8,8,0,0,1-5.89,2.19h-5.93V76.32ZM251,92.06a11,11,0,0,0,3.18-.4,5,5,0,0,0,2.19-1.25,5.18,5.18,0,0,0,1.27-2.24,13.37,13.37,0,0,0,0-6.57,4.89,4.89,0,0,0-3.46-3.5,11.42,11.42,0,0,0-3.18-.39h-3.48V92.06Z"/><rect class="cls-2" x="308.04" y="76.32" width="1.63" height="17.14"/><path class="cls-2" d="M358.44,81.5A8.36,8.36,0,0,1,360,78.66a7.18,7.18,0,0,1,2.53-2,8.92,8.92,0,0,1,7.07,0,7.42,7.42,0,0,1,2.52,2,8.51,8.51,0,0,1,1.51,2.84,11.71,11.71,0,0,1,0,6.77,8.46,8.46,0,0,1-1.51,2.83,7.52,7.52,0,0,1-2.52,2,8.92,8.92,0,0,1-7.07,0,7.27,7.27,0,0,1-2.53-2,8.31,8.31,0,0,1-1.52-2.83,11.71,11.71,0,0,1,0-6.77m1.5,6.13a7.48,7.48,0,0,0,1.16,2.43,5.74,5.74,0,0,0,2,1.71,6.21,6.21,0,0,0,2.93.65,6.1,6.1,0,0,0,2.91-.65,5.83,5.83,0,0,0,2-1.71,7.46,7.46,0,0,0,1.15-2.43,10.44,10.44,0,0,0,0-5.51,7.46,7.46,0,0,0-1.15-2.41,5.83,5.83,0,0,0-2-1.71,6,6,0,0,0-2.91-.65,6.09,6.09,0,0,0-2.93.65,5.74,5.74,0,0,0-2,1.71,7.48,7.48,0,0,0-1.16,2.41,10.44,10.44,0,0,0,0,5.51M364.59,75l2.52-3.39H369L365.81,75Z"/><polygon class="cls-2" points="423.87 76.32 423.87 92.06 433.47 92.06 433.47 93.45 422.24 93.45 422.24 76.32 423.87 76.32"/><path class="cls-2" d="M480.32,81.5a8.34,8.34,0,0,1,1.51-2.84,7.18,7.18,0,0,1,2.53-2,8.92,8.92,0,0,1,7.07,0,7.23,7.23,0,0,1,2.52,2,8.51,8.51,0,0,1,1.51,2.84,11.71,11.71,0,0,1,0,6.77A8.46,8.46,0,0,1,494,91.1a7.33,7.33,0,0,1-2.52,2,8.92,8.92,0,0,1-7.07,0,7.27,7.27,0,0,1-2.53-2,8.29,8.29,0,0,1-1.51-2.83,11.49,11.49,0,0,1,0-6.77m1.5,6.13A7.27,7.27,0,0,0,483,90.06a5.83,5.83,0,0,0,2,1.71,6.21,6.21,0,0,0,2.93.65,6.14,6.14,0,0,0,2.92-.65,5.89,5.89,0,0,0,2-1.71A7.46,7.46,0,0,0,494,87.63a10.44,10.44,0,0,0,0-5.51,7.46,7.46,0,0,0-1.15-2.41,5.89,5.89,0,0,0-2-1.71,6,6,0,0,0-2.92-.65A6.09,6.09,0,0,0,485,78a5.83,5.83,0,0,0-2,1.71,7.26,7.26,0,0,0-1.15,2.41,10.18,10.18,0,0,0,0,5.51"/><path class="cls-2" d="M557.57,93.45l-.21-3.12h-.05a6,6,0,0,1-1.07,1.57,5.77,5.77,0,0,1-1.4,1.08,6.31,6.31,0,0,1-1.65.62,9,9,0,0,1-1.81.19,8.23,8.23,0,0,1-3.54-.73,7.27,7.27,0,0,1-2.53-2,8.29,8.29,0,0,1-1.51-2.83,11.49,11.49,0,0,1,0-6.77,8.34,8.34,0,0,1,1.51-2.84,7.18,7.18,0,0,1,2.53-2,8.08,8.08,0,0,1,3.54-.73,8.76,8.76,0,0,1,2.54.36,6.4,6.4,0,0,1,3.72,2.85,6.79,6.79,0,0,1,.89,2.47H556.9a3.94,3.94,0,0,0-.49-1.5,5.4,5.4,0,0,0-1.13-1.38,6.14,6.14,0,0,0-1.69-1,6,6,0,0,0-2.21-.39,6.09,6.09,0,0,0-2.93.65,5.83,5.83,0,0,0-2,1.71,7.26,7.26,0,0,0-1.15,2.41,10.18,10.18,0,0,0,0,5.51,7.27,7.27,0,0,0,1.15,2.43,5.83,5.83,0,0,0,2,1.71,6.21,6.21,0,0,0,2.93.65,6.52,6.52,0,0,0,2.53-.47,5.3,5.3,0,0,0,1.89-1.31,5.53,5.53,0,0,0,1.15-2,7.84,7.84,0,0,0,.36-2.52h-5.83V84.74h7.27v8.71Z"/><path class="cls-2" d="M607.08,81.5a8.36,8.36,0,0,1,1.52-2.84,7.18,7.18,0,0,1,2.53-2,8.92,8.92,0,0,1,7.07,0,7.42,7.42,0,0,1,2.52,2,8.51,8.51,0,0,1,1.51,2.84,11.71,11.71,0,0,1,0,6.77,8.46,8.46,0,0,1-1.51,2.83,7.52,7.52,0,0,1-2.52,2,8.92,8.92,0,0,1-7.07,0,7.27,7.27,0,0,1-2.53-2,8.31,8.31,0,0,1-1.52-2.83,11.71,11.71,0,0,1,0-6.77m1.5,6.13a7.48,7.48,0,0,0,1.16,2.43,5.74,5.74,0,0,0,2,1.71,6.21,6.21,0,0,0,2.93.65,6.1,6.1,0,0,0,2.91-.65,5.83,5.83,0,0,0,2-1.71,7.46,7.46,0,0,0,1.15-2.43,10.44,10.44,0,0,0,0-5.51,7.46,7.46,0,0,0-1.15-2.41,5.83,5.83,0,0,0-2-1.71,6,6,0,0,0-2.91-.65,6.09,6.09,0,0,0-2.93.65,5.74,5.74,0,0,0-2,1.71,7.48,7.48,0,0,0-1.16,2.41,10.44,10.44,0,0,0,0,5.51"/><path class="cls-3" d="M72.75,49.75A22.62,22.62,0,1,0,44,21,22.63,22.63,0,1,0,15.33,49.75,22.62,22.62,0,1,0,44,78.46,22.62,22.62,0,1,0,72.75,49.75M85.6,70H66.66V51A20.21,20.21,0,0,1,85.6,70m-47-25.61A22.51,22.51,0,0,0,44,35.64,22.73,22.73,0,0,0,58.15,49.75,22.73,22.73,0,0,0,44,63.86,22.73,22.73,0,0,0,29.93,49.75a22.58,22.58,0,0,0,8.7-5.41m-29.38-.9L22.63,30.06,36,43.44a20.2,20.2,0,0,1-26.75,0m55,5.06A20.22,20.22,0,0,1,45.29,29.56H64.23ZM23.84,51A20.22,20.22,0,0,1,42.78,70H23.84Zm40.39,0V70H45.29A20.22,20.22,0,0,1,64.23,51m2.43-2.51V29.56H85.6A20.22,20.22,0,0,1,66.66,48.5M85.6,27.13H66.66V8.19A20.21,20.21,0,0,1,85.6,27.13M64.23,8.19V27.13H45.29A20.22,20.22,0,0,1,64.23,8.19M37.72,41.72,24.35,28.34,37.72,15a20.19,20.19,0,0,1,0,26.76M22.63,8.16A20.14,20.14,0,0,1,36,13.24L22.63,26.62,9.25,13.24A20.17,20.17,0,0,1,22.63,8.16M7.53,15,20.91,28.34,7.53,41.72A20.19,20.19,0,0,1,7.53,15M21.41,51V70H2.47A20.22,20.22,0,0,1,21.41,51M2.47,72.38H21.41V91.32A20.22,20.22,0,0,1,2.47,72.38M23.84,91.32V72.38H42.78A20.22,20.22,0,0,1,23.84,91.32M45.29,72.38H64.23V91.32A20.22,20.22,0,0,1,45.29,72.38M66.66,91.32V72.38H85.6A20.22,20.22,0,0,1,66.66,91.32"/></g></g></svg>